<svg xmlns="http://www.w3.org/2000/svg" viewBox="0 0 430 156" width="2048" height="743">
	<g id="Layer">
		<path id="Layer" style="fill: #ffffff" d="M170.8 49C179 50.8 184.1 54.8 184.1 63.7C184.1 74.4 176.8 80.5 165.3 80.5C159.4 80.5 154.5 78.9 151 75.8L151 79.4L138.5 79.4L138.5 62.4L151.9 62.4C153.6 65.9 157.3 67.5 161.9 67.5C165.5 67.5 166.9 66.3 166.9 64.8C166.9 63.6 166.2 62.3 163.1 61.6L153.1 59.4C143.2 57.3 138.6 52.6 138.6 44.5C138.6 33.5 147.2 27.8 157.8 27.8C162.1 27.8 167.2 28.8 171 31.8L171 28.9L183.3 28.9L183.3 45L168.8 45C167.7 42.4 165 40.4 160.9 40.4C158.2 40.4 156.4 41.4 156.4 43.4C156.4 45.3 157.9 46.1 160.3 46.6L170.8 49Z" />
	</g>
	<g id="Layer">
		<path id="Layer" style="fill: #ffffff" d="M245.8 79.4L219.2 79.4L219.2 68.9L215.2 63.2L208.9 69.8L208.9 79.4L188.5 79.4L188.5 67L193.3 67L193.3 41.3L188.5 41.3L188.5 28.9L209 28.9L209 49.8L218.5 39.4L218.5 28.9L244.8 28.9L244.8 41.2L236.3 41.2L226.3 51.7L236.6 67L245.8 67L245.8 79.4L245.8 79.4Z" />
	</g>
	<g id="Layer">
		<path id="Layer" style="fill: #ffffff" d="M270.1 67L275.4 67L275.4 79.4L249.1 79.4L249.1 67L254.4 67L254.4 41.3L249.1 41.3L249.1 28.9L275.4 28.9L275.4 41.2L270.1 41.2L270.1 67Z" />
	</g>
	<g id="Layer">
		<path id="Layer" style="fill: #ffffff" d="M324.9 79.4L280.9 79.4L280.9 67L285.7 67L285.7 41.3L280.9 41.3L280.9 28.9L307.9 28.9L307.9 41.2L301.2 41.2L301.2 66L311.2 66L311.2 59.5L324.9 59.5L324.9 79.4Z" />
	</g>
	<g id="Layer">
		<path id="Layer" style="fill: #ffffff" d="M372.7 79.4L328.7 79.4L328.7 67L333.5 67L333.5 41.3L328.7 41.3L328.7 28.9L355.7 28.9L355.7 41.2L349 41.2L349 66L359 66L359 59.5L372.7 59.5L372.7 79.4Z" />
	</g>
	<g id="Layer">
		<path id="Layer" fill-rule="evenodd" style="fill: #ffffff" d="M164.9 87.6C181.2 87.6 192.3 97.3 192.3 112.7C192.3 128.2 181.2 137.9 164.9 137.9L138.7 137.9L138.7 125.5L143.5 125.5L143.5 99.9L138.7 99.9L138.7 87.6L164.9 87.6ZM164.9 124.2C171.7 124.2 176.5 119.5 176.5 112.6C176.5 105.9 171.7 101.1 164.9 101.1L159 101.1L159 124.1L164.9 124.1L164.9 124.2Z" />
	</g>
	<g id="Layer">
		<path id="Layer" fill-rule="evenodd" style="fill: #ffffff" d="M226.5 137.9L226.5 131.2L220.8 123.7L216.3 123.7L216.3 137.9L196 137.9L196 125.5L200.8 125.5L200.8 99.9L196 99.9L196 87.6L223.5 87.6C237.5 87.6 245.6 94.3 245.6 106C245.6 112.5 242.6 117.6 237.3 120.7L241.5 125.7L249.3 125.7L249.3 137.9L226.5 137.9ZM223.6 111.4C227.5 111.4 230 109.2 230 105.9C230 102.8 227.4 100.7 223.6 100.7L216.3 100.7L216.3 111.4L223.6 111.4Z" />
	</g>
	<g id="Layer">
		<path id="Layer" style="fill: #ffffff" d="M273.6 125.6L278.9 125.6L278.9 138L252.7 138L252.7 125.6L258 125.6L258 99.9L252.7 99.9L252.7 87.6L278.9 87.6L278.9 99.9L273.6 99.9L273.6 125.6Z" />
	</g>
	<g id="Layer">
		<path id="Layer" style="fill: #ffffff" d="M328.2 137.9L284.3 137.9L284.3 125.5L289.1 125.5L289.1 99.9L284.3 99.9L284.3 87.6L311.3 87.6L311.3 99.9L304.6 99.9L304.6 124.6L314.6 124.6L314.6 118.2L328.2 118.2L328.2 137.9L328.2 137.9Z" />
	</g>
	<g id="Layer">
		<path id="Layer" style="fill: #ffffff" d="M375.9 137.9L332 137.9L332 125.5L336.8 125.5L336.8 99.9L332 99.9L332 87.6L359 87.6L359 99.9L352.3 99.9L352.3 124.6L362.3 124.6L362.3 118.2L375.9 118.2L375.9 137.9L375.9 137.9Z" />
		<path id="Layer" style="fill: #ffffff" d="M413.7 107.6C421.9 109.4 427 113.4 427 122.3C427 133 419.7 139.1 408.2 139.1C402.4 139.1 397.5 137.5 393.9 134.4L393.9 138L381.5 138L381.5 121L394.8 121C396.5 124.5 400.2 126.1 404.8 126.1C408.4 126.1 409.8 124.9 409.8 123.4C409.8 122.2 409.1 120.9 406 120.2L396 118.1C386.1 116 381.6 111.3 381.6 103.2C381.6 92.2 390.2 86.5 400.8 86.5C405.1 86.5 410.1 87.5 414 90.5L414 87.6L426.3 87.6L426.3 103.7L411.9 103.7C410.8 101.1 408.1 99.1 404.1 99.1C401.4 99.1 399.6 100.1 399.6 102.1C399.6 104 401.1 104.8 403.4 105.3L413.7 107.6Z" />
	</g>
	<g id="Icon">
		<path id="Layer" style="fill: #333333" d="M66 151.1C33.6 153.4 5.4 128.9 3.2 96.5C1.2 67.8 20.2 41.8 48.2 35.1L47.8 30.2L47.4 25.3L43.4 25.6L39.4 25.9C38.5 26 37.6 25.7 36.9 25.1C36.2 24.5 35.8 23.7 35.7 22.8L35.5 17L35.1 11.4C35.1 10.5 35.4 9.6 35.9 8.9C36.5 8.2 37.3 7.8 38.2 7.7L55.1 6.4L72.1 5.1C73 5 73.9 5.3 74.6 6C75.3 6.6 75.7 7.4 75.8 8.3C75.8 10.2 76 12 76.2 13.8C76.4 15.6 76.5 17.5 76.7 19.6C76.8 21.5 75.4 23.1 73.5 23.2L69.5 23.5L65.5 23.8L66 29L66.4 33.9C76.9 34.7 86.9 38.4 95.5 44.4L99.1 40.4L102.7 36.4C103.9 35 106 34.8 107.4 36C107.4 36 107.4 36 107.5 36.1L111.8 39.9C113.1 41.1 114.4 42.1 116.1 43.5C116.8 44.1 117.2 44.9 117.3 45.8C117.4 46.7 117.1 47.6 116.5 48.3L112.5 52.8L108.5 57.2L108.5 57.2L108.5 57.2C111.8 61.6 114.5 66.5 116.5 71.6C118.6 77 119.8 82.6 120.3 88.4C122.3 120.5 98.2 148.5 66 151.1Z" />
		<path id="Layer" style="fill: #333333" d="M102.22 35.14L104.83 32.11L118.48 43.85L115.87 46.89L102.22 35.14Z" />
		<path id="Shape 5 copy" style="fill: #333333" d="M33.77 7.11L75.84 3.26L77.34 23.14L35.27 27L33.77 7.11Z" />
		<path id="Layer" style="fill: #ffffff" d="M110.2 87.7C112.2 114.6 92.1 138 65.2 140C38.3 142 14.9 121.9 12.9 95C10.9 68.1 31 44.7 57.9 42.7C70.8 41.7 83.6 45.9 93.4 54.4C103.2 62.9 109.3 74.8 110.2 87.7Z" />
		<path id="Layer" style="fill: #02a4dd" d="M105.7 88.3C107.5 112.5 89.3 133.6 65 135.4C40.8 137.2 19.7 119 17.9 94.7C16.1 70.5 34.3 49.4 58.6 47.6C70.2 46.8 81.6 50.5 90.4 58.1C99.4 65.7 104.9 76.6 105.7 88.3Z" />
		<path id="Layer" style="fill: #ffffff" d="M57.8 45.1L61.6 91.6L106.9 88L102.9 70.8L89 54.8L75.6 47.9L57.8 45.1Z" />
		<path id="Shape 1" style="fill: #02a4dd" d="M61 85L63 85L63 93L61 93L61 85Z" />
		<path id="Shape 2" style="fill: #02a4dd" d="M62 89L72 89L72 92L62 92L62 89Z" />
		<path id="Shape 3" style="fill: #02a4dd" d="M83 87L96 87L96 92L83 92L83 87Z" />
		<path id="Layer" fill-rule="evenodd" style="fill: #ffffff" d="M49.1 96C58.2 95.3 64.8 100 65.4 108.5C66 117 60.2 122.7 51.1 123.4L36.5 124.5L36 117.8L38.7 117.8L37.7 103.8L35 103.8L34.5 97.1L49.1 96ZM50.6 116C54.1 115.9 56.8 112.9 56.6 109.5C56.5 106 53.5 103.3 50.1 103.5C50 103.5 49.8 103.5 49.7 103.5L46.4 103.7L47.4 116L50.6 116Z" />
		<path id="Layer" fill-rule="evenodd" style="fill: #ffffff" d="M95.6 120L82.8 121L82.5 117.3L79 113.3L76.5 113.3L77.1 121L65.7 121.8L65.2 115.1L67.9 114.9L66.9 100.9L64.2 100.9L63.7 94.2L79.1 93.1C86.9 92.5 91.7 95.8 92.2 102.1C92.6 105.4 91 108.6 88.2 110.4L90.8 112.9L95.2 112.6L95.6 120ZM80.1 106.6C82.3 106.6 83.6 105.2 83.5 103.4C83.4 101.6 81.8 100.7 79.5 100.9L75.5 101.2L75.9 107L80.1 106.6Z" />
		<path id="Shape 4" style="fill: #333333" d="M105.42 31L121.56 45.15L109.14 59.31L93 45.16L105.42 31Z" />
		<path id="Layer" style="fill: #ffffff" d="M52.6 74.9C57.6 75.5 60.9 77.6 61.2 82.7C61.6 88.8 57.5 92.6 50.5 93.1C47.4 93.5 44.3 92.8 41.7 91.1L41.7 93.1L34.1 93.7L33.6 84L41.6 83.4C43.1 85.3 45.5 86.3 47.9 85.8C50.1 85.8 50.9 84.9 50.8 84C50.7 83.1 50.2 82.6 48.4 82.4L42.3 81.6C36.2 80.9 33.3 78.4 32.9 73.8C32.5 67.6 37.4 63.9 43.8 63.4C46.6 63.1 49.4 63.7 51.8 65.1L51.8 63.4L59.2 62.9L60 71.9L51.2 72.6C50.2 70.9 48.2 70 46.3 70.3C44.7 70.3 43.6 71.1 43.7 72.3C43.8 73.5 44.7 73.8 46.2 73.9L52.6 74.9Z" />
		<path id="Layer" style="fill: #02a4dd" d="M96.1 89L80.1 90.3L79.6 84.3L76.9 81.3L73.4 85.3L74 90.8L61.7 91.8L61.1 84.8L64 84.6L62.9 72L60 72L59.3 62.9L71.6 61.9L72.5 73.9L78 67.6L77.6 61.6L93.6 60.4L94.2 67.4L89 67.8L83.4 74.2L90 82.4L95.6 82L96.1 89Z" />
		<path id="Layer" style="fill: #ffffff" d="M52.6 74.9C57.6 75.5 60.8 77.6 61.2 82.6C61.6 88.7 57.5 92.5 50.5 93" />
	</g>
</svg>