<?xml version="1.0" encoding="utf-8"?>
<!-- Generator: Adobe Illustrator 25.0.0, SVG Export Plug-In . SVG Version: 6.00 Build 0)  -->
<svg version="1.1" id="Dark_BG" xmlns="http://www.w3.org/2000/svg" xmlns:xlink="http://www.w3.org/1999/xlink" x="0px" y="0px"
	 viewBox="0 0 390.5 134.7" style="enable-background:new 0 0 390.5 134.7;" xml:space="preserve">
<style type="text/css">
	.st0{enable-background:new    ;}
	.st1{fill:#FFFFFF;}
	.st2{fill:#333333;}
	.st3{fill:#00A4DD;}
</style>
<g class="st0">
	<path class="st1" d="M154.6,41.4c7.6,1.6,12.2,5.3,12.2,13.5c0,9.8-6.7,15.5-17.4,15.5c-5.4,0-9.9-1.4-13.2-4.3v3.3h-11.5V53.8
		h12.3c1.6,3.2,5,4.7,9.2,4.7c3.3,0,4.6-1.1,4.6-2.5c0-1.1-0.7-2.3-3.5-2.9l-9.2-2c-9.2-1.9-13.3-6.3-13.3-13.7
		c0-10.1,7.9-15.4,17.7-15.4c4,0,8.6,0.9,12.2,3.7V23h11.3v14.8h-13.3c-1-2.4-3.5-4.2-7.2-4.2c-2.5,0-4.2,0.9-4.2,2.8
		c0,1.7,1.4,2.5,3.6,2.9L154.6,41.4z"/>
</g>
<g class="st0">
	<path class="st1" d="M223.7,69.5h-24.5v-9.7l-3.7-5.3l-5.8,6.1v8.9h-18.8V58h4.4V34.3h-4.4V23h18.8v19.3l8.8-9.6V23h24.2v11.3h-7.9
		l-9.2,9.6l9.6,14.1h8.5V69.5z"/>
</g>
<g class="st0">
	<path class="st1" d="M246,58h4.9v11.4h-24.2V58h4.9V34.3h-4.9V23h24.2v11.3H246V58z"/>
</g>
<g class="st0">
	<path class="st1" d="M296.5,69.5h-40.5V58h4.4V34.3h-4.4V23h24.9v11.3h-6.2v22.8h9.2v-5.9h12.6V69.5z"/>
</g>
<g class="st0">
	<path class="st1" d="M340.5,69.5H300V58h4.4V34.3H300V23h24.9v11.3h-6.2v22.8h9.2v-5.9h12.6V69.5z"/>
</g>
<g class="st0">
	<path class="st1" d="M149.1,77c15,0,25.2,8.9,25.2,23.1c0,14.3-10.2,23.3-25.2,23.3H125V112h4.4V88.3H125V77H149.1z M149.1,110.8
		c6.3,0,10.7-4.4,10.7-10.6c0-6.2-4.4-10.6-10.7-10.6h-5.5v21.2H149.1z"/>
</g>
<g class="st0">
	<path class="st1" d="M227,123.4h-21.1v-6.2l-5.3-6.9h-4.2v13.1h-18.7V112h4.4V88.3h-4.4V77h25.4c12.9,0,20.4,6.2,20.4,16.9
		c0,6-2.7,10.7-7.6,13.5l3.9,4.6h7.2V123.4z M203.2,98.9c3.5,0,5.9-2,5.9-5c0-2.9-2.4-4.8-5.9-4.8h-6.7v9.8H203.2z"/>
</g>
<g class="st0">
	<path class="st1" d="M249.2,112h4.9v11.4H230V112h4.9V88.3H230V77h24.1v11.3h-4.9V112z"/>
</g>
<g class="st0">
	<path class="st1" d="M299.6,123.4h-40.4V112h4.4V88.3h-4.4V77H284v11.3h-6.1V111h9.2v-5.9h12.6V123.4z"/>
</g>
<g class="st0">
	<path class="st1" d="M343.5,123.4h-40.4V112h4.4V88.3h-4.4V77h24.8v11.3h-6.1V111h9.2v-5.9h12.6V123.4z"/>
	<path class="st1" d="M378.3,95.4c7.6,1.6,12.2,5.3,12.2,13.5c0,9.8-6.7,15.5-17.3,15.5c-5.4,0-9.9-1.4-13.2-4.3v3.3h-11.5v-15.6
		h12.3c1.6,3.2,5,4.7,9.2,4.7c3.3,0,4.6-1.1,4.6-2.5c0-1.1-0.7-2.3-3.5-2.9l-9.2-2c-9.1-1.9-13.3-6.3-13.3-13.7
		c0-10.1,7.9-15.3,17.7-15.3c4,0,8.6,0.9,12.1,3.7V77h11.3v14.8h-13.3c-1-2.4-3.5-4.2-7.2-4.2c-2.5,0-4.2,0.9-4.2,2.8
		c0,1.7,1.4,2.5,3.5,2.9L378.3,95.4z"/>
</g>
<path class="st2" d="M58,134.5c-29.9,2.1-55.8-20.5-57.9-50.3c-1.8-26.4,15.7-50.4,41.5-56.5l-0.3-4.5L41,18.7L37.3,19l-3.7,0.3
	c-0.8,0.1-1.7-0.2-2.3-0.7c-0.6-0.5-1-1.3-1.1-2.1L30,11l-0.4-5.2c0-0.8,0.2-1.7,0.8-2.3c0.5-0.6,1.3-1,2.1-1.1l15.6-1.2l15.6-1.2
	c0.8-0.1,1.6,0.2,2.2,0.8C66.6,1.4,67,2.2,67,3c0,1.7,0.2,3.4,0.3,5.1c0.1,1.7,0.3,3.4,0.4,5.3c0.1,1.7-1.2,3.2-2.9,3.4L61.2,17
	l-3.7,0.3l0.5,4.8l0.3,4.5c9.6,0.8,18.9,4.1,26.8,9.7l3.3-3.7l3.3-3.7c1.1-1.3,3.1-1.5,4.4-0.4c0,0,0,0,0.1,0.1l3.9,3.5
	c1.2,1.1,2.4,2.1,3.9,3.3c0.6,0.5,1,1.3,1.1,2.1c0.1,0.8-0.2,1.7-0.8,2.3l-3.7,4.1L97,47.9l0,0l0,0c3.1,4.1,5.6,8.5,7.4,13.3
	c1.9,5,3.1,10.2,3.5,15.4C109.9,106.4,87.7,132.2,58,134.5z"/>
<rect x="97.1" y="24.4" transform="matrix(0.6524 -0.7579 0.7579 0.6524 9.5573 86.3415)" class="st2" width="3.6" height="16.6"/>
<rect x="29.9" y="1.4" transform="matrix(0.9972 -7.463064e-02 7.463064e-02 0.9972 -0.5899 3.6626)" class="st2" width="37.5" height="16.7"/>
<path class="st1" d="M98.8,77.1c1.9,24.7-16.7,46.3-41.4,48.2C32.6,127.2,11,108.6,9.2,83.9C7.3,59.1,25.9,37.6,50.6,35.7
	c11.9-0.9,23.7,3,32.7,10.8C92.3,54.2,97.9,65.3,98.8,77.1z"/>
<path class="st3" d="M94.6,77.6c1.6,22.3-15.2,41.7-37.5,43.4c-22.3,1.6-41.7-15.2-43.4-37.5c-1.6-22.3,15.2-41.7,37.5-43.4
	c10.7-0.8,21.2,2.7,29.3,9.7C88.8,56.9,93.8,66.9,94.6,77.6z"/>
<polygon class="st1" points="50.5,37.9 54,80.7 95.7,77.4 92,61.6 79.2,46.8 66.9,40.5 "/>
<path class="st1" d="M42.5,84.7c8.4-0.6,14.5,3.7,15,11.5c0.6,7.8-4.8,13.1-13.2,13.7l-13.5,1l-0.4-6.2h2.5l-1-12.9h-2.5L29,85.7
	L42.5,84.7z M43.8,103.1c3.2-0.1,5.7-2.8,5.5-6c-0.1-3.2-2.8-5.7-6-5.5c-0.1,0-0.2,0-0.4,0l-3.1,0.2l0.9,11.3H43.8z"/>
<path class="st1" d="M85.3,106.8l-11.8,0.9l-0.3-3.4l-3.2-3.7h-2.3l0.6,7.1l-10.5,0.8l-0.4-6.2l2.5-0.2l-1-12.9h-2.5l-0.5-6.2
	l14.2-1c7.2-0.6,11.6,2.5,12.1,8.3c0.3,3-1.1,6-3.7,7.7l2.4,2.3l4-0.3L85.3,106.8z M71,94.5c2,0,3.2-1.3,3.1-3
	c-0.1-1.7-1.5-2.5-3.7-2.3l-3.7,0.3l0.4,5.3L71,94.5z"/>
<path class="st1" d="M45.7,65.3c4.6,0.6,7.6,2.5,8,7.1c0.4,5.6-3.4,9.1-9.8,9.6c-2.8,0.3-5.7-0.3-8.1-1.8v1.8l-7,0.5l-0.5-9l7.4-0.6
	c1.3,1.8,3.6,2.7,5.8,2.2c2,0,2.8-0.8,2.7-1.7c-0.1-0.8-0.5-1.3-2.2-1.5l-5.6-0.7c-5.6-0.7-8.3-2.9-8.7-7.2
	c-0.4-5.7,4.2-9.1,10.1-9.5c2.6-0.3,5.1,0.3,7.4,1.5v-1.5l6.9-0.5l0.7,8.3l-8.1,0.6c-0.9-1.6-2.7-2.4-4.5-2.1
	c-1.5,0-2.5,0.7-2.4,1.8c0.1,1.1,1,1.4,2.3,1.5L45.7,65.3z"/>
<path class="st3" d="M85.8,78.3L71,79.4l-0.4-5.5l-2.5-2.8l-3.2,3.7l0.5,5.1L54,80.8l-0.5-6.5l2.7-0.2l-1-11.5h-2.7l-0.7-8.4
	l11.3-0.9L64,64.4l5-5.8l-0.4-5.5l14.7-1.1l0.5,6.4l-4.8,0.4L74,64.6l6.1,7.6l5.1-0.4L85.8,78.3z"/>
<path class="st1" d="M45.7,65.3c4.6,0.6,7.6,2.5,8,7.1c0.4,5.6-3.4,9.1-9.8,9.6"/>
</svg>
