<?xml version="1.0" encoding="utf-8"?>
<!-- Generator: Adobe Illustrator 25.0.0, SVG Export Plug-In . SVG Version: 6.00 Build 0)  -->
<svg version="1.1" id="Light_BG" xmlns="http://www.w3.org/2000/svg" xmlns:xlink="http://www.w3.org/1999/xlink" x="0px" y="0px"
	 viewBox="0 0 423.9 146.2" style="enable-background:new 0 0 423.9 146.2;" xml:space="preserve">
<style type="text/css">
	.st0{enable-background:new    ;}
	.st1{fill:#333333;}
	.st2{fill:#FFFFFF;}
	.st3{fill:#00A4DD;}
</style>
<g class="st0">
	<path class="st1" d="M167.8,45c8.2,1.8,13.3,5.8,13.3,14.7c0,10.7-7.3,16.8-18.8,16.8c-5.9,0-10.8-1.6-14.3-4.7v3.6h-12.5v-17h13.4
		c1.7,3.5,5.4,5.1,10,5.1c3.6,0,5-1.2,5-2.7c0-1.2-0.7-2.5-3.8-3.2l-10-2.2c-9.9-2.1-14.5-6.8-14.5-14.9c0-11,8.6-16.7,19.2-16.7
		c4.3,0,9.4,1,13.2,4v-2.9h12.3V41h-14.5c-1.1-2.6-3.8-4.6-7.9-4.6c-2.7,0-4.5,1-4.5,3c0,1.9,1.5,2.7,3.9,3.2L167.8,45z"/>
</g>
<g class="st0">
	<path class="st1" d="M242.8,75.4h-26.6V64.9l-4-5.7l-6.3,6.6v9.6h-20.4V63h4.8V37.3h-4.8V24.9H206v20.9l9.5-10.4V24.9h26.3v12.3
		h-8.5l-10,10.5L233.6,63h9.2V75.4z"/>
</g>
<g class="st0">
	<path class="st1" d="M267.1,63h5.3v12.4h-26.3V63h5.3V37.3h-5.3V24.9h26.3v12.3h-5.3V63z"/>
</g>
<g class="st0">
	<path class="st1" d="M321.9,75.4h-44V63h4.8V37.3h-4.8V24.9h27v12.3h-6.7V62h10v-6.5h13.7V75.4z"/>
</g>
<g class="st0">
	<path class="st1" d="M369.7,75.4h-44V63h4.8V37.3h-4.8V24.9h27v12.3H346V62h10v-6.5h13.7V75.4z"/>
</g>
<g class="st0">
	<path class="st1" d="M161.9,83.6c16.3,0,27.4,9.7,27.4,25.1c0,15.5-11.1,25.2-27.4,25.2h-26.2v-12.4h4.8V95.9h-4.8V83.6H161.9z
		 M161.9,120.2c6.8,0,11.6-4.7,11.6-11.6c0-6.7-4.8-11.5-11.6-11.5H156v23H161.9z"/>
</g>
<g class="st0">
	<path class="st1" d="M246.4,133.9h-22.9v-6.7l-5.7-7.5h-4.5v14.2H193v-12.4h4.8V95.9H193V83.6h27.5c14,0,22.1,6.7,22.1,18.4
		c0,6.5-3,11.6-8.3,14.7l4.2,5h7.8V133.9z M220.6,107.4c3.9,0,6.4-2.2,6.4-5.5c0-3.1-2.6-5.2-6.4-5.2h-7.3v10.7H220.6z"/>
</g>
<g class="st0">
	<path class="st1" d="M270.6,121.6h5.3v12.4h-26.2v-12.4h5.3V95.9h-5.3V83.6h26.2v12.3h-5.3V121.6z"/>
</g>
<g class="st0">
	<path class="st1" d="M325.2,133.9h-43.9v-12.4h4.8V95.9h-4.8V83.6h27v12.3h-6.7v24.7h10v-6.4h13.6V133.9z"/>
</g>
<g class="st0">
	<path class="st1" d="M372.9,133.9H329v-12.4h4.8V95.9H329V83.6h27v12.3h-6.7v24.7h10v-6.4h13.6V133.9z"/>
	<path class="st1" d="M410.7,103.6c8.2,1.8,13.3,5.8,13.3,14.7c0,10.7-7.3,16.8-18.8,16.8c-5.8,0-10.7-1.6-14.3-4.7v3.6h-12.4v-17
		h13.3c1.7,3.5,5.4,5.1,10,5.1c3.6,0,5-1.2,5-2.7c0-1.2-0.7-2.5-3.8-3.2l-10-2.1c-9.9-2.1-14.4-6.8-14.4-14.9
		c0-11,8.6-16.7,19.2-16.7c4.3,0,9.3,1,13.2,4v-2.9h12.3v16.1h-14.4c-1.1-2.6-3.8-4.6-7.8-4.6c-2.7,0-4.5,1-4.5,3
		c0,1.9,1.5,2.7,3.8,3.2L410.7,103.6z"/>
</g>
<g id="Icon">
	<path class="st1" d="M63,146.1c-32.4,2.3-60.6-22.2-62.8-54.6c-2-28.7,17-54.7,45-61.4l-0.4-4.9l-0.4-4.9l-4,0.3l-4,0.3
		c-0.9,0.1-1.8-0.2-2.5-0.8c-0.7-0.6-1.1-1.4-1.2-2.3L32.5,12l-0.4-5.6c0-0.9,0.3-1.8,0.8-2.5c0.6-0.7,1.4-1.1,2.3-1.2l16.9-1.3
		l17-1.3C70,0,70.9,0.3,71.6,1c0.7,0.6,1.1,1.4,1.2,2.3c0,1.9,0.2,3.7,0.4,5.5s0.3,3.7,0.5,5.8c0.1,1.9-1.3,3.5-3.2,3.6l-4,0.3
		l-4,0.3L63,24l0.4,4.9c10.5,0.8,20.5,4.5,29.1,10.5l3.6-4l3.6-4c1.2-1.4,3.3-1.6,4.7-0.4c0,0,0,0,0.1,0.1l4.3,3.8
		c1.3,1.2,2.6,2.2,4.3,3.6c0.7,0.6,1.1,1.4,1.2,2.3c0.1,0.9-0.2,1.8-0.8,2.5l-4,4.5l-4,4.4l0,0l0,0c3.3,4.4,6,9.3,8,14.4
		c2.1,5.4,3.3,11,3.8,16.8C119.3,115.5,95.2,143.5,63,146.1z"/>
	<rect x="105.4" y="26.5" transform="matrix(0.6524 -0.7579 0.7579 0.6524 10.376 93.737)" class="st1" width="4" height="18"/>
	
		<rect x="32.5" y="1.5" transform="matrix(0.9972 -7.463064e-02 7.463064e-02 0.9972 -0.6404 3.9764)" class="st1" width="40.8" height="18.1"/>
	<path class="st2" d="M107.2,83.7c2,26.9-18.1,50.3-45,52.3c-26.9,2-50.3-18.1-52.3-45c-2-26.9,18.1-50.3,45-52.3
		c12.9-1,25.7,3.2,35.5,11.7C100.2,58.9,106.3,70.8,107.2,83.7z"/>
	<path class="st3" d="M102.7,84.3c1.8,24.2-16.4,45.3-40.7,47.1c-24.2,1.8-45.3-16.4-47.1-40.7c-1.8-24.2,16.4-45.3,40.7-47.1
		c11.6-0.8,23,2.9,31.8,10.5C96.4,61.7,101.9,72.6,102.7,84.3z"/>
	<polygon class="st2" points="54.8,41.1 58.6,87.6 103.9,84 99.9,66.8 86,50.8 72.6,43.9 	"/>
	<path class="st2" d="M46.1,92c9.1-0.7,15.7,4,16.3,12.5c0.6,8.5-5.2,14.2-14.3,14.9l-14.6,1.1l-0.5-6.7h2.7l-1-14H32l-0.5-6.7
		L46.1,92z M47.6,112c3.5-0.1,6.2-3.1,6-6.5c-0.1-3.5-3.1-6.2-6.5-6c-0.1,0-0.3,0-0.4,0l-3.3,0.2l1,12.3H47.6z"/>
	<path class="st2" d="M92.6,116l-12.8,1l-0.3-3.7l-3.5-4h-2.5l0.6,7.7l-11.4,0.8l-0.5-6.7l2.7-0.2l-1-14h-2.7l-0.5-6.7l15.4-1.1
		c7.8-0.6,12.6,2.7,13.1,9c0.4,3.3-1.2,6.5-4,8.3l2.6,2.5l4.4-0.3L92.6,116z M77.1,102.6c2.2,0,3.5-1.4,3.4-3.2s-1.7-2.7-4-2.5
		l-4,0.3l0.4,5.8L77.1,102.6z"/>
	<path class="st2" d="M49.6,70.9c5,0.6,8.3,2.7,8.6,7.8c0.4,6.1-3.7,9.9-10.7,10.4c-3.1,0.4-6.2-0.3-8.8-2v2l-7.6,0.6L30.6,80l8-0.6
		c1.5,1.9,3.9,2.9,6.3,2.4c2.2,0,3-0.9,2.9-1.8c-0.1-0.9-0.6-1.4-2.4-1.6l-6.1-0.8c-6.1-0.7-9-3.2-9.4-7.8
		c-0.4-6.2,4.5-9.9,10.9-10.4c2.8-0.3,5.6,0.3,8,1.7v-1.7l7.4-0.5l0.8,9l-8.8,0.7c-1-1.7-3-2.6-4.9-2.3c-1.6,0-2.7,0.8-2.6,2
		s1,1.5,2.5,1.6L49.6,70.9z"/>
	<path class="st3" d="M93.1,85l-16,1.3l-0.5-6l-2.7-3l-3.5,4l0.6,5.5l-12.3,1l-0.6-7l2.9-0.2L59.9,68H57l-0.7-9.1l12.3-1l0.9,12
		l5.5-6.3l-0.4-6l16-1.2l0.6,7l-5.2,0.4l-5.6,6.4l6.6,8.2l5.6-0.4L93.1,85z"/>
	<path class="st2" d="M49.6,70.9c5,0.6,8.2,2.7,8.6,7.7c0.4,6.1-3.7,9.9-10.7,10.4"/>
</g>
</svg>
