<?xml version="1.0" encoding="utf-8"?>
<!-- Generator: Adobe Illustrator 25.0.1, SVG Export Plug-In . SVG Version: 6.00 Build 0)  -->
<svg version="1.1" id="Dark" xmlns="http://www.w3.org/2000/svg" xmlns:xlink="http://www.w3.org/1999/xlink" x="0px" y="0px"
	 viewBox="0 0 512 512" style="enable-background:new 0 0 512 512;" xml:space="preserve">
<style type="text/css">
	.st0{fill:#00A4DD;}
	.st1{fill:#333333;}
	.st2{fill:#FFFFFF;}
</style>
<rect id="BG" class="st0" width="512" height="512"/>
<g id="Icon">
	<path class="st1" d="M269.3,489.8c-103,7.1-192.3-70.7-199.3-173.7c-6.3-91.1,54.2-173.4,143-194.6l-1.3-15.5l-1.1-15.4l-12.7,0.9
		l-12.7,0.9c-2.9,0.2-5.7-0.7-7.9-2.5c-2.2-1.9-3.5-4.5-3.7-7.4l-1.4-17.9l-1.3-17.9c-0.2-2.9,0.7-5.7,2.5-7.9
		c1.9-2.1,4.5-3.4,7.4-3.7l53.7-4.1l53.9-4.1c2.8-0.1,5.6,0.8,7.7,2.7c2.2,1.8,3.6,4.5,3.8,7.4l1.1,17.5c0,5.8,0.9,11.8,1.5,18.3
		c0.2,2.9-0.7,5.7-2.5,7.9c-1.9,2.1-4.5,3.4-7.4,3.7l-12.7,0.9l-12.7,1l1.8,15.4l1.1,15.4c33.2,2.6,65.1,14.1,92.3,33.3l11.4-12.7
		l11.4-12.7c3.8-4.5,10.5-5.1,15-1.3c0.1,0.1,0.1,0.1,0.2,0.2l13.6,11.9c4.2,3.7,8.4,7.2,13.7,11.6c2.1,1.9,3.4,4.5,3.7,7.4
		c0.2,2.8-0.7,5.6-2.5,7.7l-12.7,14.2l-12.7,14.2l0,0l0,0c10.6,14,19.2,29.4,25.4,45.9c24.7,64.3,12.1,137-32.8,189.3
		C364,463.1,318.4,486.1,269.3,489.8z"/>
	
		<rect x="403.8" y="110.4" transform="matrix(0.6524 -0.7579 0.7579 0.6524 37.2148 359.1298)" class="st1" width="12.6" height="57.3"/>
	
		<rect x="172.3" y="30.8" transform="matrix(0.9972 -7.463064e-02 7.463064e-02 0.9972 -3.7837 17.8568)" class="st1" width="129.4" height="57.5"/>
	<path class="st2" d="M409.6,292.1C416,377.4,352,451.7,266.7,458c-85.3,6.4-159.6-57.6-165.9-142.9
		c-6.4-85.3,57.6-159.6,142.9-165.9c41-3.1,81.4,10.3,112.6,37.1C387.4,213.1,406.6,251.2,409.6,292.1z"/>
	<path class="st0" d="M395.3,293.8c5.8,77.4-52.2,144.8-129.6,150.6c-77.4,5.8-144.8-52.2-150.6-129.6s52.2-144.8,129.6-150.6
		c37.2-2.8,74,9.3,102.2,33.7C375.1,222.1,392.6,256.7,395.3,293.8z"/>
	<polygon class="st2" points="243.1,156.6 255.3,304.2 399.2,292.8 386.3,238.3 342.3,187.6 299.8,165.6 	"/>
	<path class="st2" d="M215.9,317.5c29-2.2,49.9,12.7,51.9,39.6c2,26.9-16.5,45.1-45.3,47.2l-46.6,3.4l-1.5-21.3l8.5-0.6l-3.3-44.3
		l-8.5,0.6l-1.7-21.2L215.9,317.5z M220.8,381c11-0.6,19.4-10,18.8-21c-0.6-11-10-19.4-21-18.8c-0.3,0-0.6,0-0.9,0.1l-10.5,0.8
		l3,39.8L220.8,381z"/>
	<path class="st2" d="M363.1,393.7l-40.5,3l-0.9-11.7L310.7,373h-8l2.2,25.3l-35.9,2.8l-2.2-21.3h8.5l-3.3-44.3l-8.5,0.6l-1.7-21.2
		l48.9-3.7c25.4-1.9,40.1,8.6,41.7,28.7c1.2,10.5-3.7,20.8-12.7,26.4l8.1,8l13.8-1L363.1,393.7z M313.9,351.3
		c6.9,0,11.2-4.7,10.8-10.4c-0.4-5.7-5.3-8.5-12.1-8l-12.7,0.9l1.4,18.4L313.9,351.3z"/>
	<path class="st2" d="M226.6,251.4c16,2,26.3,8.5,27.4,24.5c1.5,19.3-11.7,31.5-33.9,33.2c-9.8,1.2-19.7-1-28.1-6.4v6.4l-24,1.8
		l-2.3-30.6l25.4-1.9c4.6,6.2,12.4,9.3,19.9,7.7c6.9,0,9.5-2.8,9.3-5.6c-0.3-2.8-1.8-4.4-7.6-5.2l-19.6-2.5
		c-19.3-2.3-28.7-10.2-29.8-24.8c-1.4-19.8,14.4-31.4,34.7-32.9c8.8-0.9,17.7,1,25.4,5.3v-5.2l23.6-1.8l2.2,29.1l-27.7,2
		c-3.4-5.3-9.5-8.2-15.7-7.2c-5.2,0-8.6,2.4-8.3,6.2c0.4,3.8,3.2,4.7,7.7,5.2L226.6,251.4z"/>
	<path class="st0" d="M364.9,295.8l-50.8,4.1l-1.4-19.1l-8.5-9.7L293,283.9l1.3,17.4l-39.4,3.6l-1.8-22.4l9.3-0.6l-3-40.5l-9.3,0.6
		l-2.3-29.1l39.1-3l3,38.1l16.6-19.3l-1.8-19.7l50.8-3.9l1.7,22.2l-16.4,1.3L323.3,249l22.2,25.4l17.7-1.4L364.9,295.8z"/>
	<path class="st2" d="M226.6,251.2c16,2,26.3,8.5,27.4,24.6c1.5,19.2-11.7,31.4-33.9,33"/>
</g>
</svg>
