<svg xmlns="http://www.w3.org/2000/svg" viewBox="0 0 154 154" width="512" height="512">
	<g id="Layer">
		<path id="Layer" style="fill: #02a4dd" d="M186.8 49C195 50.8 200.1 54.8 200.1 63.7C200.1 74.4 192.8 80.5 181.3 80.5C175.4 80.5 170.5 78.9 167 75.8L167 79.4L154.5 79.4L154.5 62.4L167.9 62.4C169.6 65.9 173.3 67.5 177.9 67.5C181.5 67.5 182.9 66.3 182.9 64.8C182.9 63.6 182.2 62.3 179.1 61.6L169.1 59.4C159.2 57.3 154.6 52.6 154.6 44.5C154.6 33.5 163.2 27.8 173.8 27.8C178.1 27.8 183.2 28.8 187 31.8L187 28.9L199.3 28.9L199.3 45L184.8 45C183.7 42.4 181 40.4 176.9 40.4C174.2 40.4 172.4 41.4 172.4 43.4C172.4 45.3 173.9 46.1 176.3 46.6L186.8 49Z" />
	</g>
	<g id="Layer">
		<path id="Layer" style="fill: #02a4dd" d="M261.8 79.4L235.2 79.4L235.2 68.9L231.2 63.2L224.9 69.8L224.9 79.4L204.5 79.4L204.5 67L209.3 67L209.3 41.3L204.5 41.3L204.5 28.9L225 28.9L225 49.8L234.5 39.4L234.5 28.9L260.8 28.9L260.8 41.2L252.3 41.2L242.3 51.7L252.6 67L261.8 67L261.8 79.4L261.8 79.4Z" />
	</g>
	<g id="Layer">
		<path id="Layer" style="fill: #02a4dd" d="M286.1 67L291.4 67L291.4 79.4L265.1 79.4L265.1 67L270.4 67L270.4 41.3L265.1 41.3L265.1 28.9L291.4 28.9L291.4 41.2L286.1 41.2L286.1 67Z" />
	</g>
	<g id="Layer">
		<path id="Layer" style="fill: #02a4dd" d="M340.9 79.4L296.9 79.4L296.9 67L301.7 67L301.7 41.3L296.9 41.3L296.9 28.9L323.9 28.9L323.9 41.2L317.2 41.2L317.2 66L327.2 66L327.2 59.5L340.9 59.5L340.9 79.4Z" />
	</g>
	<g id="Layer">
		<path id="Layer" style="fill: #02a4dd" d="M388.7 79.4L344.7 79.4L344.7 67L349.5 67L349.5 41.3L344.7 41.3L344.7 28.9L371.7 28.9L371.7 41.2L365 41.2L365 66L375 66L375 59.5L388.7 59.5L388.7 79.4Z" />
	</g>
	<g id="Layer">
		<path id="Layer" fill-rule="evenodd" style="fill: #02a4dd" d="M180.9 87.6C197.2 87.6 208.3 97.3 208.3 112.7C208.3 128.2 197.2 137.9 180.9 137.9L154.7 137.9L154.7 125.5L159.5 125.5L159.5 99.9L154.7 99.9L154.7 87.6L180.9 87.6ZM180.9 124.2C187.7 124.2 192.5 119.5 192.5 112.6C192.5 105.9 187.7 101.1 180.9 101.1L175 101.1L175 124.1L180.9 124.1L180.9 124.2Z" />
	</g>
	<g id="Layer">
		<path id="Layer" fill-rule="evenodd" style="fill: #02a4dd" d="M242.5 137.9L242.5 131.2L236.8 123.7L232.3 123.7L232.3 137.9L212 137.9L212 125.5L216.8 125.5L216.8 99.9L212 99.9L212 87.6L239.5 87.6C253.5 87.6 261.6 94.3 261.6 106C261.6 112.5 258.6 117.6 253.3 120.7L257.5 125.7L265.3 125.7L265.3 137.9L242.5 137.9ZM239.6 111.4C243.5 111.4 246 109.2 246 105.9C246 102.8 243.4 100.7 239.6 100.7L232.3 100.7L232.3 111.4L239.6 111.4Z" />
	</g>
	<g id="Layer">
		<path id="Layer" style="fill: #02a4dd" d="M289.6 125.6L294.9 125.6L294.9 138L268.7 138L268.7 125.6L274 125.6L274 99.9L268.7 99.9L268.7 87.6L294.9 87.6L294.9 99.9L289.6 99.9L289.6 125.6Z" />
	</g>
	<g id="Layer">
		<path id="Layer" style="fill: #02a4dd" d="M344.2 137.9L300.3 137.9L300.3 125.5L305.1 125.5L305.1 99.9L300.3 99.9L300.3 87.6L327.3 87.6L327.3 99.9L320.6 99.9L320.6 124.6L330.6 124.6L330.6 118.2L344.2 118.2L344.2 137.9L344.2 137.9Z" />
	</g>
	<g id="Layer">
		<path id="Layer" style="fill: #02a4dd" d="M391.9 137.9L348 137.9L348 125.5L352.8 125.5L352.8 99.9L348 99.9L348 87.6L375 87.6L375 99.9L368.3 99.9L368.3 124.6L378.3 124.6L378.3 118.2L391.9 118.2L391.9 137.9L391.9 137.9Z" />
		<path id="Layer" style="fill: #02a4dd" d="M429.7 107.6C437.9 109.4 443 113.4 443 122.3C443 133 435.7 139.1 424.2 139.1C418.4 139.1 413.5 137.5 409.9 134.4L409.9 138L397.5 138L397.5 121L410.8 121C412.5 124.5 416.2 126.1 420.8 126.1C424.4 126.1 425.8 124.9 425.8 123.4C425.8 122.2 425.1 120.9 422 120.2L412 118.1C402.1 116 397.6 111.3 397.6 103.2C397.6 92.2 406.2 86.5 416.8 86.5C421.1 86.5 426.1 87.5 430 90.5L430 87.6L442.3 87.6L442.3 103.7L427.9 103.7C426.8 101.1 424.1 99.1 420.1 99.1C417.4 99.1 415.6 100.1 415.6 102.1C415.6 104 417.1 104.8 419.4 105.3L429.7 107.6Z" />
	</g>
	<g id="Icon">
		<path id="Layer" style="fill: #333333" d="M82 151.1C49.6 153.4 21.4 128.9 19.2 96.5C17.2 67.8 36.2 41.8 64.2 35.1L63.8 30.2L63.4 25.3L59.4 25.6L55.4 25.9C54.5 26 53.6 25.7 52.9 25.1C52.2 24.5 51.8 23.7 51.7 22.8L51.5 17L51.1 11.4C51.1 10.5 51.4 9.6 51.9 8.9C52.5 8.2 53.3 7.8 54.2 7.7L71.1 6.4L88.1 5.1C89 5 89.9 5.3 90.6 6C91.3 6.6 91.7 7.4 91.8 8.3C91.8 10.2 92 12 92.2 13.8C92.4 15.6 92.5 17.5 92.7 19.6C92.8 21.5 91.4 23.1 89.5 23.2L85.5 23.5L81.5 23.8L82 29L82.4 33.9C92.9 34.7 102.9 38.4 111.5 44.4L115.1 40.4L118.7 36.4C119.9 35 122 34.8 123.4 36C123.4 36 123.4 36 123.5 36.1L127.8 39.9C129.1 41.1 130.4 42.1 132.1 43.5C132.8 44.1 133.2 44.9 133.3 45.8C133.4 46.7 133.1 47.6 132.5 48.3L128.5 52.8L124.5 57.2L124.5 57.2L124.5 57.2C127.8 61.6 130.5 66.5 132.5 71.6C134.6 77 135.8 82.6 136.3 88.4C138.3 120.5 114.2 148.5 82 151.1Z" />
		<path id="Layer" style="fill: #02a4dd" d="M118.22 35.14L120.83 32.11L134.48 43.85L131.87 46.89L118.22 35.14Z" />
		<path id="Shape 5 copy" style="fill: #333333" d="M49.77 7.11L91.84 3.26L93.34 23.14L51.27 27L49.77 7.11Z" />
		<path id="Layer" style="fill: #ffffff" d="M126.2 87.7C128.2 114.6 108.1 138 81.2 140C54.3 142 30.9 121.9 28.9 95C26.9 68.1 47 44.7 73.9 42.7C86.8 41.7 99.6 45.9 109.4 54.4C119.2 62.9 125.3 74.8 126.2 87.7Z" />
		<path id="Layer" style="fill: #02a4dd" d="M121.7 88.3C123.5 112.5 105.3 133.6 81 135.4C56.8 137.2 35.7 119 33.9 94.7C32.1 70.5 50.3 49.4 74.6 47.6C86.2 46.8 97.6 50.5 106.4 58.1C115.4 65.7 120.9 76.6 121.7 88.3Z" />
		<path id="Layer" style="fill: #ffffff" d="M73.8 45.1L77.6 91.6L122.9 88L118.9 70.8L105 54.8L91.6 47.9L73.8 45.1Z" />
		<path id="Shape 1" style="fill: #02a4dd" d="M77 85L79 85L79 93L77 93L77 85Z" />
		<path id="Shape 2" style="fill: #02a4dd" d="M78 89L88 89L88 92L78 92L78 89Z" />
		<path id="Shape 3" style="fill: #02a4dd" d="M99 87L112 87L112 92L99 92L99 87Z" />
		<path id="Layer" style="fill: #ffffff" d="M65.1 96C74.2 95.3 80.8 100 81.4 108.5C82 117 76.2 122.7 67.1 123.4L52.5 124.5L52 117.8L54.7 117.8L53.7 103.8L51 103.8L50.5 97.1L65.1 96ZM66.6 116C70.1 115.9 72.8 112.9 72.6 109.5C72.5 106 69.5 103.3 66.1 103.5C66 103.5 65.8 103.5 65.7 103.5L62.4 103.7L63.4 116L66.6 116Z" />
		<path id="Layer" style="fill: #ffffff" d="M111.6 120L98.8 121L98.5 117.3L95 113.3L92.5 113.3L93.1 121L81.7 121.8L81.2 115.1L83.9 114.9L82.9 100.9L80.2 100.9L79.7 94.2L95.1 93.1C102.9 92.5 107.7 95.8 108.2 102.1C108.6 105.4 107 108.6 104.2 110.4L106.8 112.9L111.2 112.6L111.6 120ZM96.1 106.6C98.3 106.6 99.6 105.2 99.5 103.4C99.4 101.6 97.8 100.7 95.5 100.9L91.5 101.2L91.9 107L96.1 106.6Z" />
		<path id="Shape 4" style="fill: #333333" d="M121.42 31L137.56 45.15L125.14 59.31L109 45.16L121.42 31Z" />
		<path id="Layer" style="fill: #ffffff" d="M68.6 74.9C73.6 75.5 76.9 77.6 77.2 82.7C77.6 88.8 73.5 92.6 66.5 93.1C63.4 93.5 60.3 92.8 57.7 91.1L57.7 93.1L50.1 93.7L49.6 84L57.6 83.4C59.1 85.3 61.5 86.3 63.9 85.8C66.1 85.8 66.9 84.9 66.8 84C66.7 83.1 66.2 82.6 64.4 82.4L58.3 81.6C52.2 80.9 49.3 78.4 48.9 73.8C48.5 67.6 53.4 63.9 59.8 63.4C62.6 63.1 65.4 63.7 67.8 65.1L67.8 63.4L75.2 62.9L76 71.9L67.2 72.6C66.2 70.9 64.2 70 62.3 70.3C60.7 70.3 59.6 71.1 59.7 72.3C59.8 73.5 60.7 73.8 62.2 73.9L68.6 74.9Z" />
		<path id="Layer" style="fill: #02a4dd" d="M112.1 89L96.1 90.3L95.6 84.3L92.9 81.3L89.4 85.3L90 90.8L77.7 91.8L77.1 84.8L80 84.6L78.9 72L76 72L75.3 62.9L87.6 61.9L88.5 73.9L94 67.6L93.6 61.6L109.6 60.4L110.2 67.4L105 67.8L99.4 74.2L106 82.4L111.6 82L112.1 89Z" />
		<path id="Layer" style="fill: #ffffff" d="M68.6 74.9C73.6 75.5 76.8 77.6 77.2 82.6C77.6 88.7 73.5 92.5 66.5 93" />
	</g>
</svg>